<svg xmlns="http://www.w3.org/2000/svg" version="1.1" xmlns:xlink="http://www.w3.org/1999/xlink" xmlns:svgjs="http://svgjs.dev/svgjs" width="1500" height="935" viewBox="0 0 1500 935"><g transform="matrix(1,0,0,1,-0.9090909090909918,0.3785425101214628)"><svg viewBox="0 0 396 247" data-background-color="#ffffff" preserveAspectRatio="xMidYMid meet" height="935" width="1500" xmlns="http://www.w3.org/2000/svg" xmlns:xlink="http://www.w3.org/1999/xlink"><g id="tight-bounds" transform="matrix(1,0,0,1,0.2400000000000091,-0.09999999999999432)"><svg viewBox="0 0 395.52 247.2" height="247.2" width="395.52"><g><svg></svg></g><g><svg viewBox="0 0 395.52 247.2" height="247.2" width="395.52"><mask id="f4b62dd2-02a8-4116-b97a-446d34a97770"><rect width="640" height="400" fill="white"></rect><g transform="matrix(1,0,0,1,39.55199999999999,108.93508792595709)"><svg viewBox="0 0 316.416 29.329824148085812" height="29.329824148085812" width="316.416"><g><svg viewBox="0 0 316.416 29.329824148085812" height="29.329824148085812" width="316.416"><g><svg viewBox="0 0 316.416 29.329824148085812" height="29.329824148085812" width="316.416"><g><svg viewBox="0 0 316.416 29.329824148085812" height="29.329824148085812" width="316.416"><g id="SvgjsG1412"><svg viewBox="0 0 316.416 29.329824148085812" height="29.329824148085812" width="316.416" id="SvgjsSvg1411"><g><svg viewBox="0 0 316.416 29.329824148085812" height="29.329824148085812" width="316.416"><g transform="matrix(1,0,0,1,0,0)"><svg width="316.416" viewBox="1.2000000000000002 -32.55 357.51 34.050000000000004" height="29.329824148085812" data-palette-color="#c9378b"><path d="M24.85-31.05L24.85 0 16.65 0 10.2-14.45 9.8-14.45 9.8 0 2.2 0 2.2-31.05 10.65-31.05 16.8-16.15 17.2-16.15 17.2-31.05 24.85-31.05ZM46.55-7L46.05 0 29.25 0 29.25-31.05 46.55-31.05 46.05-23.4 37.8-23.4 37.8-18.75 44.95-18.75 44.95-12.15 37.8-12.15 37.8-7 46.55-7ZM66.75-16.1L71.34 0 61.6 0 59.5-9.9 59.1-9.9 56.75 0 47.55 0 52.4-16.1 47.95-31.05 58.05-31.05 59.75-21.85 60.15-21.85 62-31.05 70.8-31.05 66.75-16.1ZM93.89-29.95L92.54-21.8Q87.74-23.25 85.52-23.25 83.29-23.25 82.47-21.3 81.64-19.35 81.64-15.13 81.64-10.9 82.42-8.97 83.19-7.05 85.59-7.05L85.59-7.05Q86.29-7.05 88.29-7.45L88.29-7.45 88.29-11.25 86.04-11.25 86.04-17.15 95.59-17.15 95.59 0 89.69 0 88.89-1.6 88.69-1.6Q87.84-0.9 87.34-0.55L87.34-0.55Q85.94 0.5 83.39 0.5L83.39 0.5Q72.94 0.5 72.94-15.3L72.94-15.3Q72.94-23.2 75.69-27.38 78.44-31.55 84.94-31.55L84.94-31.55Q90.14-31.55 93.89-29.95L93.89-29.95ZM117.09-7L116.59 0 99.79 0 99.79-31.05 117.09-31.05 116.59-23.4 108.34-23.4 108.34-18.75 115.49-18.75 115.49-12.15 108.34-12.15 108.34-7 117.09-7ZM142.64-31.05L142.64 0 134.44 0 127.99-14.45 127.59-14.45 127.59 0 119.99 0 119.99-31.05 128.44-31.05 134.59-16.15 134.99-16.15 134.99-31.05 142.64-31.05ZM156.13-21.7Q156.13-26.15 158.73-28.85 161.33-31.55 165.86-31.55 170.38-31.55 175.13-30.65L175.13-30.65 174.13-22.65Q169.18-23.8 167.33-23.8L167.33-23.8Q164.98-23.8 164.98-21.9L164.98-21.9Q164.98-21.15 166.11-20.45 167.23-19.75 168.83-18.98 170.43-18.2 172.03-17.13 173.63-16.05 174.76-14.05 175.88-12.05 175.88-9.45L175.88-9.45Q175.88-4.7 173.33-2.1 170.78 0.5 166.11 0.5 161.43 0.5 156.98-0.95L156.98-0.95 157.53-8.4Q162.88-6.85 164.98-6.85 167.08-6.85 167.08-8.7L167.08-8.7Q167.08-9.65 165.96-10.45 164.83-11.25 163.23-12.05 161.63-12.85 160.01-13.9 158.38-14.95 157.26-16.95 156.13-18.95 156.13-21.7L156.13-21.7ZM180.76-27.8Q183.63-31.55 190.18-31.55 196.73-31.55 199.56-27.85 202.38-24.15 202.38-15.83 202.38-7.5 199.48-3.5 196.58 0.5 190.08 0.5 183.58 0.5 180.73-3.45 177.88-7.4 177.88-15.73 177.88-24.05 180.76-27.8ZM193.78-15.8Q193.78-20.4 193.06-22.03 192.33-23.65 190.11-23.65 187.88-23.65 187.23-22.03 186.58-20.4 186.58-15.85L186.58-15.85 186.58-14.65Q186.58-9.8 187.31-8.28 188.03-6.75 190.26-6.75 192.48-6.75 193.13-8.2 193.78-9.65 193.78-14.2L193.78-14.2 193.78-15.8ZM222.08-6.95L221.58 0 205.78 0 205.78-31.05 214.33-31.05 214.33-6.95 222.08-6.95ZM232.63-10.2Q232.63-8.65 233.28-7.9 233.93-7.15 235.4-7.15 236.88-7.15 237.45-7.88 238.03-8.6 238.03-10.25L238.03-10.25 238.03-31.05 246.63-31.05 246.63-9.75Q246.63-4.4 243.7-1.95 240.78 0.5 235.1 0.5 229.43 0.5 226.65-1.93 223.88-4.35 223.88-9.65L223.88-9.65 223.88-31.05 232.63-31.05 232.63-10.2ZM269.57-31.05L269.07-23.5 263.27-23.5 263.27 0 254.72 0 254.72-23.5 248.57-23.5 249.07-31.05 269.57-31.05ZM280.52-31.05L280.52 0 272.02 0 272.02-31.05 280.52-31.05ZM287.29-27.8Q290.17-31.55 296.72-31.55 303.27-31.55 306.09-27.85 308.92-24.15 308.92-15.83 308.92-7.5 306.02-3.5 303.12 0.5 296.62 0.5 290.12 0.5 287.27-3.45 284.42-7.4 284.42-15.73 284.42-24.05 287.29-27.8ZM300.32-15.8Q300.32-20.4 299.59-22.03 298.87-23.65 296.64-23.65 294.42-23.65 293.77-22.03 293.12-20.4 293.12-15.85L293.12-15.85 293.12-14.65Q293.12-9.8 293.84-8.28 294.57-6.75 296.79-6.75 299.02-6.75 299.67-8.2 300.32-9.65 300.32-14.2L300.32-14.2 300.32-15.8ZM334.97-31.05L334.97 0 326.76 0 320.31-14.45 319.92-14.45 319.92 0 312.31 0 312.31-31.05 320.76-31.05 326.92-16.15 327.31-16.15 327.31-31.05 334.97-31.05ZM337.96-21.7Q337.96-26.15 340.56-28.85 343.16-31.55 347.69-31.55 352.21-31.55 356.96-30.65L356.96-30.65 355.96-22.65Q351.01-23.8 349.16-23.8L349.16-23.8Q346.81-23.8 346.81-21.9L346.81-21.9Q346.81-21.15 347.94-20.45 349.06-19.75 350.66-18.98 352.26-18.2 353.86-17.13 355.46-16.05 356.59-14.05 357.71-12.05 357.71-9.45L357.71-9.45Q357.71-4.7 355.16-2.1 352.61 0.5 347.94 0.5 343.26 0.5 338.81-0.95L338.81-0.95 339.36-8.4Q344.71-6.85 346.81-6.85 348.91-6.85 348.91-8.7L348.91-8.7Q348.91-9.65 347.79-10.45 346.66-11.25 345.06-12.05 343.46-12.85 341.84-13.9 340.21-14.95 339.09-16.95 337.96-18.95 337.96-21.7L337.96-21.7Z" opacity="1" transform="matrix(1,0,0,1,0,0)" fill="black" class="wordmark-text-0" id="SvgjsPath1410" stroke-width="1" stroke="black" stroke-linejoin="round"></path></svg></g></svg></g></svg></g></svg></g><g></g></svg></g></svg></g></svg></g></mask><g transform="matrix(1,0,0,1,39.55199999999999,108.93508792595709)"><svg viewBox="0 0 316.416 29.329824148085812" height="29.329824148085812" width="316.416"><g><svg viewBox="0 0 316.416 29.329824148085812" height="29.329824148085812" width="316.416"><g><svg viewBox="0 0 316.416 29.329824148085812" height="29.329824148085812" width="316.416"><g><svg viewBox="0 0 316.416 29.329824148085812" height="29.329824148085812" width="316.416"><g id="textblocktransform"><svg viewBox="0 0 316.416 29.329824148085812" height="29.329824148085812" width="316.416" id="textblock"><g><svg viewBox="0 0 316.416 29.329824148085812" height="29.329824148085812" width="316.416"><g transform="matrix(1,0,0,1,0,0)"><svg width="316.416" viewBox="1.2000000000000002 -32.55 357.51 34.050000000000004" height="29.329824148085812" data-palette-color="#c9378b"><path d="M24.85-31.05L24.85 0 16.65 0 10.2-14.45 9.8-14.45 9.8 0 2.2 0 2.2-31.05 10.65-31.05 16.8-16.15 17.2-16.15 17.2-31.05 24.85-31.05ZM46.55-7L46.05 0 29.25 0 29.25-31.05 46.55-31.05 46.05-23.4 37.8-23.4 37.8-18.75 44.95-18.75 44.95-12.15 37.8-12.15 37.8-7 46.55-7ZM66.75-16.1L71.34 0 61.6 0 59.5-9.9 59.1-9.9 56.75 0 47.55 0 52.4-16.1 47.95-31.05 58.05-31.05 59.75-21.85 60.15-21.85 62-31.05 70.8-31.05 66.75-16.1ZM93.89-29.95L92.54-21.8Q87.74-23.25 85.52-23.25 83.29-23.25 82.47-21.3 81.64-19.35 81.64-15.13 81.64-10.9 82.42-8.97 83.19-7.05 85.59-7.05L85.59-7.05Q86.29-7.05 88.29-7.45L88.29-7.45 88.29-11.25 86.04-11.25 86.04-17.15 95.59-17.15 95.59 0 89.69 0 88.89-1.6 88.69-1.6Q87.84-0.9 87.34-0.55L87.34-0.55Q85.94 0.5 83.39 0.5L83.39 0.5Q72.94 0.5 72.94-15.3L72.94-15.3Q72.94-23.2 75.69-27.38 78.44-31.55 84.94-31.55L84.94-31.55Q90.14-31.55 93.89-29.95L93.89-29.95ZM117.09-7L116.59 0 99.79 0 99.79-31.05 117.09-31.05 116.59-23.4 108.34-23.4 108.34-18.75 115.49-18.75 115.49-12.15 108.34-12.15 108.34-7 117.09-7ZM142.64-31.05L142.64 0 134.44 0 127.99-14.45 127.59-14.45 127.59 0 119.99 0 119.99-31.05 128.44-31.05 134.59-16.15 134.99-16.15 134.99-31.05 142.64-31.05ZM156.13-21.7Q156.13-26.15 158.73-28.85 161.33-31.55 165.86-31.55 170.38-31.55 175.13-30.65L175.13-30.65 174.13-22.65Q169.18-23.8 167.33-23.8L167.33-23.8Q164.98-23.8 164.98-21.9L164.98-21.9Q164.98-21.15 166.11-20.45 167.23-19.75 168.83-18.98 170.43-18.2 172.03-17.13 173.63-16.05 174.76-14.05 175.88-12.05 175.88-9.45L175.88-9.45Q175.88-4.7 173.33-2.1 170.78 0.5 166.11 0.5 161.43 0.5 156.98-0.95L156.98-0.95 157.53-8.4Q162.88-6.85 164.98-6.85 167.08-6.85 167.08-8.7L167.08-8.7Q167.08-9.65 165.96-10.45 164.83-11.25 163.23-12.05 161.63-12.85 160.01-13.9 158.38-14.95 157.26-16.95 156.13-18.95 156.13-21.7L156.13-21.7ZM180.76-27.8Q183.63-31.55 190.18-31.55 196.73-31.55 199.56-27.85 202.38-24.15 202.38-15.83 202.38-7.5 199.48-3.5 196.58 0.5 190.08 0.5 183.58 0.5 180.73-3.45 177.88-7.4 177.88-15.73 177.88-24.05 180.76-27.8ZM193.78-15.8Q193.78-20.4 193.06-22.03 192.33-23.65 190.11-23.65 187.88-23.65 187.23-22.03 186.58-20.4 186.58-15.85L186.58-15.85 186.58-14.65Q186.58-9.8 187.31-8.28 188.03-6.75 190.26-6.75 192.48-6.75 193.13-8.2 193.78-9.65 193.78-14.2L193.78-14.2 193.78-15.8ZM222.08-6.95L221.58 0 205.78 0 205.78-31.05 214.33-31.05 214.33-6.95 222.08-6.95ZM232.63-10.2Q232.63-8.65 233.28-7.9 233.93-7.15 235.4-7.15 236.88-7.15 237.45-7.88 238.03-8.6 238.03-10.25L238.03-10.25 238.03-31.05 246.63-31.05 246.63-9.75Q246.63-4.4 243.7-1.95 240.78 0.5 235.1 0.5 229.43 0.5 226.65-1.93 223.88-4.35 223.88-9.65L223.88-9.65 223.88-31.05 232.63-31.05 232.63-10.2ZM269.57-31.05L269.07-23.5 263.27-23.5 263.27 0 254.72 0 254.72-23.5 248.57-23.5 249.07-31.05 269.57-31.05ZM280.52-31.05L280.52 0 272.02 0 272.02-31.05 280.52-31.05ZM287.29-27.8Q290.17-31.55 296.72-31.55 303.27-31.55 306.09-27.85 308.92-24.15 308.92-15.83 308.92-7.5 306.02-3.5 303.12 0.5 296.62 0.5 290.12 0.5 287.27-3.45 284.42-7.4 284.42-15.73 284.42-24.05 287.29-27.8ZM300.32-15.8Q300.32-20.4 299.59-22.03 298.87-23.65 296.64-23.65 294.42-23.65 293.77-22.03 293.12-20.4 293.12-15.85L293.12-15.85 293.12-14.65Q293.12-9.8 293.84-8.28 294.57-6.75 296.79-6.75 299.02-6.75 299.67-8.2 300.32-9.65 300.32-14.2L300.32-14.2 300.32-15.8ZM334.97-31.05L334.97 0 326.76 0 320.31-14.45 319.92-14.45 319.92 0 312.31 0 312.31-31.05 320.76-31.05 326.92-16.15 327.31-16.15 327.31-31.05 334.97-31.05ZM337.96-21.7Q337.96-26.15 340.56-28.85 343.16-31.55 347.69-31.55 352.21-31.55 356.96-30.65L356.96-30.65 355.96-22.65Q351.01-23.8 349.16-23.8L349.16-23.8Q346.81-23.8 346.81-21.9L346.81-21.9Q346.81-21.15 347.94-20.45 349.06-19.75 350.66-18.98 352.26-18.2 353.86-17.13 355.46-16.05 356.59-14.05 357.71-12.05 357.71-9.45L357.71-9.45Q357.71-4.7 355.16-2.1 352.61 0.5 347.94 0.5 343.26 0.5 338.81-0.95L338.81-0.95 339.36-8.4Q344.71-6.85 346.81-6.85 348.91-6.85 348.91-8.7L348.91-8.7Q348.91-9.65 347.79-10.45 346.66-11.25 345.06-12.05 343.46-12.85 341.84-13.9 340.21-14.95 339.09-16.95 337.96-18.95 337.96-21.7L337.96-21.7Z" opacity="1" transform="matrix(1,0,0,1,0,0)" fill="#c9378b" class="wordmark-text-0" data-fill-palette-color="primary" id="text-0"></path></svg></g></svg></g></svg></g></svg></g><g></g></svg></g></svg></g></svg></g><g mask="url(#f4b62dd2-02a8-4116-b97a-446d34a97770)"><g transform="matrix(2.7461802690412873, 0, 0, 2.7461802690412873, 75.16603184765192, 1)"><svg xmlns="http://www.w3.org/2000/svg" xmlns:xlink="http://www.w3.org/1999/xlink" version="1.1" x="0" y="0" viewBox="0.35833249999999595 0.3587183000000067 89.28326340000001 89.2876563" enable-background="new 0 0 90 90" xml:space="preserve" height="89.2876563" width="89.28326340000001" class="icon-none" data-fill-palette-color="accent" id="none"><polygon points="57.928,58.169 57.875,76.027 45.397,63.548 45.397,45.639 " fill="#f6caec" data-fill-palette-color="accent"></polygon><polygon points="76.027,57.875 58.475,57.927 45.826,45.279 63.432,45.279 " fill="#f6caec" data-fill-palette-color="accent"></polygon><polygon points="76.027,32.125 63.432,44.721 45.707,44.721 58.355,32.073 " fill="#f6caec" data-fill-palette-color="accent"></polygon><polygon points="44.838,45.59 44.838,63.314 32.125,76.027 32.074,58.355 " fill="#f6caec" data-fill-palette-color="accent"></polygon><polygon points="57.928,31.712 45.397,44.243 45.397,26.452 57.875,13.974 " fill="#f6caec" data-fill-palette-color="accent"></polygon><polygon points="44.838,26.687 44.838,44.291 32.074,31.526 32.125,13.974 " fill="#f6caec" data-fill-palette-color="accent"></polygon><polygon points="44.479,44.721 26.569,44.721 13.974,32.125 31.832,32.073 " fill="#f6caec" data-fill-palette-color="accent"></polygon><polygon points="44.36,45.279 31.712,57.927 13.974,57.875 26.569,45.279 " fill="#f6caec" data-fill-palette-color="accent"></polygon><rect x="58.48" y="58.48" width="18.049" height="18.049" fill="#f6caec" data-fill-palette-color="accent"></rect><polygon points="76.527,13.474 76.527,31.516 58.914,31.516 58.912,31.518 58.484,31.516 58.484,13.474 " fill="#f6caec" data-fill-palette-color="accent"></polygon><polygon points="31.518,30.971 31.516,31.516 13.474,31.516 13.474,13.474 31.516,13.474 31.516,30.968 " fill="#f6caec" data-fill-palette-color="accent"></polygon><rect x="13.471" y="58.48" width="18.05" height="18.049" fill="#f6caec" data-fill-palette-color="accent"></rect><rect x="67.864" y="35.981" transform="matrix(0.7071 -0.7071 0.7071 0.7071 -9.3022 67.5465)" width="18.042" height="18.042" fill="#f6caec" data-fill-palette-color="accent"></rect><rect x="35.979" y="4.094" transform="matrix(0.7071 -0.7071 0.7071 0.7071 3.9068 35.6621)" width="18.042" height="18.042" fill="#f6caec" data-fill-palette-color="accent"></rect><rect x="4.095" y="35.98" transform="matrix(0.7071 -0.7071 0.7071 0.7071 -27.9787 22.4536)" width="18.041" height="18.041" fill="#f6caec" data-fill-palette-color="accent"></rect><rect x="35.98" y="67.865" transform="matrix(0.7071 -0.7071 0.7071 0.7071 -41.1877 54.3437)" width="18.04" height="18.041" fill="#f6caec" data-fill-palette-color="accent"></rect></svg></g></g></svg></g><defs></defs></svg><rect width="395.52" height="247.2" fill="none" stroke="none" visibility="hidden"></rect></g></svg></g></svg>